<svg width="1200" height="630" xmlns="http://www.w3.org/2000/svg">
  <defs>
    <linearGradient id="bg" x1="0%" y1="0%" x2="100%" y2="100%">
      <stop offset="0%" style="stop-color:#0a0a1a"/>
      <stop offset="50%" style="stop-color:#1a0a2e"/>
      <stop offset="100%" style="stop-color:#0a0a1a"/>
    </linearGradient>
    <linearGradient id="accent" x1="0%" y1="0%" x2="100%" y2="0%">
      <stop offset="0%" style="stop-color:#8b5cf6"/>
      <stop offset="100%" style="stop-color:#a78bfa"/>
    </linearGradient>
  </defs>
  <rect width="1200" height="630" fill="url(#bg)"/>
  <circle cx="900" cy="315" r="250" fill="rgba(139,92,246,0.06)"/>
  <circle cx="200" cy="500" r="150" fill="rgba(139,92,246,0.04)"/>
  <text x="80" y="200" font-family="Inter, -apple-system, sans-serif" font-size="22" font-weight="700" fill="#ffffff" letter-spacing="0.05em">INSIGHT</text>
  <text x="80" y="290" font-family="Inter, -apple-system, sans-serif" font-size="56" font-weight="800" fill="#ffffff" letter-spacing="-0.03em">Understand yourself</text>
  <text x="80" y="360" font-family="Inter, -apple-system, sans-serif" font-size="56" font-weight="800" fill="url(#accent)" letter-spacing="-0.03em">with Insight.</text>
  <text x="80" y="430" font-family="Inter, -apple-system, sans-serif" font-size="20" fill="rgba(255,255,255,0.6)" letter-spacing="-0.01em">AI-powered journaling that helps you discover patterns</text>
  <text x="80" y="460" font-family="Inter, -apple-system, sans-serif" font-size="20" fill="rgba(255,255,255,0.6)" letter-spacing="-0.01em">in your thoughts, track wellbeing, and build better habits.</text>
  <text x="80" y="540" font-family="Inter, -apple-system, sans-serif" font-size="16" fill="rgba(255,255,255,0.35)">myinsightai.app</text>
  <rect x="850" y="80" width="240" height="480" rx="24" fill="rgba(255,255,255,0.05)" stroke="rgba(255,255,255,0.1)" stroke-width="1"/>
  <rect x="870" y="100" width="200" height="20" rx="4" fill="rgba(255,255,255,0.08)"/>
  <rect x="870" y="140" width="160" height="12" rx="3" fill="rgba(139,92,246,0.3)"/>
  <rect x="870" y="170" width="200" height="100" rx="8" fill="rgba(139,92,246,0.15)"/>
  <circle cx="970" cy="220" r="20" fill="rgba(139,92,246,0.3)"/>
  <rect x="870" y="290" width="200" height="60" rx="8" fill="rgba(255,255,255,0.05)"/>
  <rect x="870" y="370" width="200" height="60" rx="8" fill="rgba(255,255,255,0.05)"/>
  <rect x="870" y="450" width="90" height="30" rx="15" fill="rgba(139,92,246,0.4)"/>
  <rect x="980" y="450" width="90" height="30" rx="15" fill="rgba(255,255,255,0.08)"/>
</svg>
