<svg width="46" height="25" viewBox="0 0 46 25" fill="none" xmlns="http://www.w3.org/2000/svg">
<path d="M43.7922 18.2578C43.4972 18.4111 43.1929 18.546 42.8813 18.6617C41.8943 19.0291 40.8492 19.2154 39.7961 19.2117C35.7312 19.2117 32.1906 16.4188 32.1906 12.8266C32.1959 12.3456 32.3293 11.8746 32.577 11.4623C32.8247 11.0499 33.1778 10.711 33.6 10.4805C29.9219 10.6352 28.9766 14.468 28.9766 16.7109C28.9766 23.0703 34.8289 23.7062 36.0922 23.7062C36.7711 23.7062 37.7937 23.5086 38.4125 23.3109L38.5242 23.2766C40.8921 22.4582 42.9108 20.8579 44.2477 18.7391C44.2865 18.6747 44.3032 18.5993 44.2951 18.5246C44.2871 18.4498 44.2547 18.3798 44.203 18.3252C44.1513 18.2705 44.0832 18.2344 44.009 18.2222C43.9347 18.2101 43.8586 18.2226 43.7922 18.2578Z" fill="url(#paint0_linear_2079_397)"/>
<path opacity="0.35" d="M43.7922 18.2578C43.4972 18.4111 43.1929 18.546 42.8813 18.6617C41.8943 19.0291 40.8492 19.2154 39.7961 19.2117C35.7312 19.2117 32.1906 16.4188 32.1906 12.8266C32.1959 12.3456 32.3293 11.8746 32.577 11.4623C32.8247 11.0499 33.1778 10.711 33.6 10.4805C29.9219 10.6352 28.9766 14.468 28.9766 16.7109C28.9766 23.0703 34.8289 23.7062 36.0922 23.7062C36.7711 23.7062 37.7937 23.5086 38.4125 23.3109L38.5242 23.2766C40.8921 22.4582 42.9108 20.8579 44.2477 18.7391C44.2865 18.6747 44.3032 18.5993 44.2951 18.5246C44.2871 18.4498 44.2547 18.3798 44.203 18.3252C44.1513 18.2705 44.0832 18.2344 44.009 18.2222C43.9347 18.2101 43.8586 18.2226 43.7922 18.2578Z" fill="url(#paint1_radial_2079_397)"/>
<path d="M33.013 22.6227C32.248 22.1476 31.5849 21.5254 31.0622 20.7922C30.4652 19.9751 30.0543 19.0372 29.8582 18.0445C29.6622 17.0517 29.6858 16.028 29.9274 15.0454C30.1689 14.0627 30.6227 13.1448 31.2566 12.356C31.8906 11.5673 32.6896 10.9269 33.5973 10.4797C33.8723 10.3508 34.3278 10.1273 34.938 10.1359C35.3673 10.1393 35.7901 10.2418 36.1732 10.4356C36.5563 10.6294 36.8895 10.9092 37.1466 11.2531C37.4923 11.7181 37.6819 12.2807 37.688 12.8602C37.688 12.843 39.7934 6.01953 30.813 6.01953C27.0403 6.01953 23.938 9.59453 23.938 12.7398C23.923 14.4013 24.2782 16.0453 24.9778 17.5523C26.1236 19.9921 28.1253 21.9263 30.603 22.9877C33.0806 24.0491 35.8618 24.1639 38.4184 23.3102C37.5227 23.5931 36.5762 23.6781 35.6444 23.5594C34.7127 23.4407 33.8177 23.1211 33.0216 22.6227H33.013Z" fill="url(#paint2_linear_2079_397)"/>
<path opacity="0.41" d="M33.013 22.6227C32.248 22.1476 31.5849 21.5254 31.0622 20.7922C30.4652 19.9751 30.0543 19.0372 29.8582 18.0445C29.6622 17.0517 29.6858 16.028 29.9274 15.0454C30.1689 14.0627 30.6227 13.1448 31.2566 12.356C31.8906 11.5673 32.6896 10.9269 33.5973 10.4797C33.8723 10.3508 34.3278 10.1273 34.938 10.1359C35.3673 10.1393 35.7901 10.2418 36.1732 10.4356C36.5563 10.6294 36.8895 10.9092 37.1466 11.2531C37.4923 11.7181 37.6819 12.2807 37.688 12.8602C37.688 12.843 39.7934 6.01953 30.813 6.01953C27.0403 6.01953 23.938 9.59453 23.938 12.7398C23.923 14.4013 24.2782 16.0453 24.9778 17.5523C26.1236 19.9921 28.1253 21.9263 30.603 22.9877C33.0806 24.0491 35.8618 24.1639 38.4184 23.3102C37.5227 23.5931 36.5762 23.6781 35.6444 23.5594C34.7127 23.4407 33.8177 23.1211 33.0216 22.6227H33.013Z" fill="url(#paint3_radial_2079_397)"/>
<path d="M37.0266 14.6742C36.9492 14.7602 36.7344 14.8891 36.7344 15.1555C36.7344 15.3789 36.8805 15.6023 37.1469 15.7828C38.3758 16.6422 40.7047 16.5219 40.7133 16.5219C41.6294 16.5213 42.5286 16.275 43.3172 15.8086C44.1111 15.3442 44.7698 14.6804 45.2281 13.883C45.6863 13.0856 45.9282 12.1822 45.9297 11.2625C45.9555 9.3375 45.2422 8.05703 44.9586 7.48984C43.1281 3.93203 39.2008 1.88672 34.9297 1.88672C32.0389 1.88643 29.2642 3.0241 27.2057 5.05366C25.1472 7.08323 23.9703 9.84154 23.9297 12.732C23.9727 9.59531 27.0922 7.06016 30.8047 7.06016C31.1055 7.06016 32.8242 7.08594 34.4141 7.91953C35.531 8.47456 36.456 9.35162 37.0695 10.4375C37.5937 11.3484 37.6883 12.5086 37.6883 12.9727C37.6883 13.4367 37.4562 14.1156 37.018 14.6828L37.0266 14.6742Z" fill="url(#paint4_radial_2079_397)"/>
<path d="M37.0266 14.6742C36.9492 14.7602 36.7344 14.8891 36.7344 15.1555C36.7344 15.3789 36.8805 15.6023 37.1469 15.7828C38.3758 16.6422 40.7047 16.5219 40.7133 16.5219C41.6294 16.5213 42.5286 16.275 43.3172 15.8086C44.1111 15.3442 44.7698 14.6804 45.2281 13.883C45.6863 13.0856 45.9282 12.1822 45.9297 11.2625C45.9555 9.3375 45.2422 8.05703 44.9586 7.48984C43.1281 3.93203 39.2008 1.88672 34.9297 1.88672C32.0389 1.88643 29.2642 3.0241 27.2057 5.05366C25.1472 7.08323 23.9703 9.84154 23.9297 12.732C23.9727 9.59531 27.0922 7.06016 30.8047 7.06016C31.1055 7.06016 32.8242 7.08594 34.4141 7.91953C35.531 8.47456 36.456 9.35162 37.0695 10.4375C37.5937 11.3484 37.6883 12.5086 37.6883 12.9727C37.6883 13.4367 37.4562 14.1156 37.018 14.6828L37.0266 14.6742Z" fill="url(#paint5_radial_2079_397)"/>
<circle cx="23.9297" cy="12.8867" r="11.5" fill="white" stroke="white"/>
<path opacity="0.53" d="M34.5252 13.8538C34.5252 15.2011 34.2511 16.5353 33.7186 17.7801C33.186 19.0249 32.4055 20.156 31.4215 21.1087C30.4375 22.0614 29.2694 22.8172 27.9837 23.3328C26.6981 23.8484 25.3202 24.1138 23.9286 24.1138C22.537 24.1138 21.1591 23.8484 19.8735 23.3328C18.5878 22.8172 17.4197 22.0614 16.4357 21.1087C15.4517 20.156 14.6712 19.0249 14.1386 17.7801C13.6061 16.5353 13.332 15.2011 13.332 13.8538C13.332 11.1326 14.4485 8.52297 16.4357 6.59884C18.4229 4.67471 21.1182 3.59375 23.9286 3.59375C25.3202 3.59375 26.6981 3.85913 27.9837 4.37475C29.2694 4.89036 30.4375 5.64611 31.4215 6.59884C32.4055 7.55157 33.186 8.68263 33.7186 9.92743C34.2511 11.1722 34.5252 12.5064 34.5252 13.8538Z" fill="black"/>
<path d="M34.9297 12.9472C34.9297 14.3997 34.6452 15.838 34.0924 17.1799C33.5396 18.5218 32.7293 19.7411 31.7079 20.7682C30.6864 21.7953 29.4738 22.61 28.1392 23.1658C26.8046 23.7217 25.3742 24.0078 23.9297 24.0078C21.0123 24.0078 18.2144 22.8425 16.1515 20.7682C14.0886 18.694 12.9297 15.8807 12.9297 12.9472C12.9297 10.0138 14.0886 7.20052 16.1515 5.12627C18.2144 3.05202 21.0123 1.88672 23.9297 1.88672C25.3742 1.88672 26.8046 2.17281 28.1392 2.72865C29.4738 3.2845 30.6864 4.09921 31.7079 5.12627C32.7293 6.15334 33.5396 7.37264 34.0924 8.71456C34.6452 10.0565 34.9297 11.4948 34.9297 12.9472Z" fill="url(#paint6_linear_2079_397)" stroke="#CDCDCD" stroke-width="0.351543" stroke-linecap="round" stroke-linejoin="round"/>
<path d="M34.0652 12.9477C34.0652 15.6513 32.9971 18.2441 31.0958 20.1559C29.1945 22.0676 26.6159 23.1416 23.9271 23.1416C21.2383 23.1416 18.6597 22.0676 16.7584 20.1559C14.8572 18.2441 13.7891 15.6513 13.7891 12.9477C13.7891 10.2442 14.8572 7.65132 16.7584 5.73961C18.6597 3.8279 21.2383 2.75391 23.9271 2.75391C26.6159 2.75391 29.1945 3.8279 31.0958 5.73961C32.9971 7.65132 34.0652 10.2442 34.0652 12.9477Z" fill="url(#paint7_radial_2079_397)"/>
<path d="M23.9243 3.28516C23.8424 3.28516 23.7765 3.35144 23.7765 3.43378V5.14808C23.7765 5.23042 23.8424 5.2967 23.9243 5.2967C24.0062 5.2967 24.0721 5.23042 24.0721 5.14808V3.43378C24.0721 3.35144 24.0062 3.28516 23.9243 3.28516ZM22.9573 3.34661C22.9475 3.34555 22.9374 3.34555 22.9273 3.34673C22.8458 3.35528 22.7871 3.42808 22.7956 3.50998L22.8701 4.22716C22.8786 4.30906 22.951 4.36811 23.0325 4.35956C23.1139 4.35101 23.1726 4.27821 23.1641 4.19631L23.0897 3.47913C23.0822 3.40747 23.0259 3.3533 22.9573 3.34661ZM24.898 3.34731C24.8295 3.35395 24.7731 3.40812 24.7656 3.47977L24.6906 4.19689C24.682 4.27878 24.7407 4.35166 24.8222 4.36027C24.9036 4.36888 24.976 4.30989 24.9846 4.228L25.0596 3.51081C25.0682 3.42893 25.0094 3.35611 24.928 3.3475C24.9178 3.34645 24.9078 3.34644 24.898 3.34731ZM21.964 3.49144C21.9542 3.49152 21.9442 3.4925 21.9342 3.49462C21.854 3.51168 21.8032 3.59027 21.8202 3.67082L22.1733 5.34792C22.1902 5.42847 22.2684 5.4796 22.3485 5.46255C22.4286 5.44549 22.4795 5.36696 22.4625 5.28641L22.1094 3.60925C22.0945 3.53876 22.0329 3.4909 21.964 3.49144ZM25.8913 3.49286C25.8224 3.49215 25.7607 3.54015 25.7458 3.61062L25.3915 5.28752C25.3745 5.36806 25.4253 5.44668 25.5054 5.46379C25.5855 5.48091 25.6637 5.42982 25.6807 5.34929L26.035 3.67239C26.052 3.59185 26.0012 3.51323 25.9211 3.49612C25.9111 3.494 25.9011 3.49286 25.8913 3.49286ZM21.0161 3.7602C20.9969 3.75844 20.9772 3.76056 20.9577 3.76705C20.8798 3.79251 20.8375 3.87598 20.8628 3.95429L21.0844 4.64011C21.1097 4.71842 21.1928 4.761 21.2706 4.73556C21.3485 4.7101 21.3908 4.62657 21.3655 4.54826L21.1439 3.86244C21.1249 3.8037 21.0735 3.76511 21.0161 3.7602ZM26.8339 3.76056C26.7765 3.76546 26.725 3.80407 26.706 3.8628L26.4843 4.54856C26.459 4.62686 26.5013 4.7104 26.5791 4.73586C26.657 4.76131 26.7401 4.71877 26.7654 4.64048L26.9872 3.95466C27.0125 3.87635 26.9702 3.79281 26.8923 3.76736C26.8728 3.761 26.853 3.75893 26.8339 3.76056ZM20.0786 4.10513C20.0594 4.10549 20.04 4.10972 20.0213 4.11809C19.9465 4.15153 19.913 4.239 19.9463 4.31424L20.6387 5.88076C20.672 5.95599 20.759 5.98963 20.8338 5.95619C20.9086 5.92275 20.9421 5.83528 20.9089 5.76004L20.2163 4.19353C20.1914 4.13709 20.1362 4.10401 20.0786 4.10513ZM27.7819 4.1104C27.7243 4.10934 27.6691 4.14221 27.644 4.19859L26.9495 5.76415C26.9161 5.83934 26.9494 5.92688 27.0242 5.96042C27.099 5.99397 27.1861 5.96044 27.2194 5.88525L27.914 4.3197C27.9474 4.2445 27.914 4.15696 27.8392 4.12342C27.8206 4.11505 27.8011 4.11082 27.7819 4.1104ZM19.2085 4.56806C19.1801 4.56594 19.1509 4.5723 19.1243 4.58776C19.0534 4.62893 19.0292 4.71947 19.0702 4.79078L19.4288 5.41528C19.4697 5.48659 19.5597 5.51084 19.6307 5.46967C19.7016 5.4285 19.7257 5.33797 19.6848 5.26666L19.3262 4.64216C19.3006 4.59759 19.2558 4.57139 19.2085 4.56806ZM28.6401 4.56806C28.5928 4.57124 28.548 4.59758 28.5225 4.64215L28.1638 5.26665C28.1229 5.33796 28.1471 5.42849 28.218 5.46966C28.2889 5.51083 28.3789 5.48657 28.4199 5.41527L28.7785 4.79077C28.8194 4.71946 28.7953 4.62892 28.7244 4.58775C28.6978 4.57232 28.6685 4.56608 28.6401 4.56806ZM18.3636 5.09795C18.3351 5.09901 18.3066 5.10819 18.2818 5.1263C18.2155 5.17465 18.2008 5.26722 18.2489 5.33387L19.25 6.72149C19.2981 6.78813 19.3903 6.80287 19.4565 6.75453C19.5228 6.70619 19.5375 6.61361 19.4894 6.54696L18.4882 5.15935C18.4582 5.11769 18.4109 5.09632 18.3636 5.09795ZM29.4956 5.1055C29.4482 5.10374 29.401 5.1251 29.3709 5.1667L28.3679 6.55297C28.3197 6.61955 28.3342 6.71216 28.4005 6.7606C28.4667 6.80904 28.5588 6.79446 28.607 6.7279L29.6099 5.34163C29.6581 5.27505 29.6435 5.18244 29.5773 5.134C29.5525 5.11585 29.524 5.10653 29.4956 5.1055ZM17.6083 5.73482C17.5706 5.7327 17.5321 5.74537 17.5017 5.77292C17.4408 5.82801 17.4359 5.9216 17.4907 5.9828L17.9705 6.51878C18.0253 6.57997 18.1184 6.5849 18.1793 6.52979C18.2401 6.47471 18.245 6.38105 18.1902 6.31985L17.7105 5.78393C17.6831 5.75332 17.6461 5.73681 17.6083 5.73482ZM30.2413 5.73587C30.2036 5.73799 30.1666 5.75441 30.1392 5.78501L29.6594 6.32086C29.6046 6.38205 29.6094 6.47571 29.6703 6.5308C29.7311 6.5859 29.8242 6.58096 29.879 6.51979L30.3589 5.98394C30.4137 5.92274 30.4088 5.82909 30.348 5.77399C30.3175 5.74645 30.2791 5.73389 30.2413 5.73587ZM16.8845 6.43395C16.8467 6.43606 16.8098 6.45248 16.7824 6.48308C16.7276 6.54428 16.7325 6.63787 16.7934 6.69296L18.0605 7.83991C18.1213 7.895 18.2144 7.89007 18.2692 7.82889C18.324 7.7677 18.3191 7.6741 18.2583 7.61901L16.9911 6.47206C16.9607 6.44452 16.9222 6.43195 16.8845 6.43395ZM30.9687 6.43896C30.931 6.43684 30.8924 6.44948 30.862 6.477L29.5941 7.62305C29.5332 7.67809 29.5282 7.77169 29.5829 7.83293C29.6377 7.89416 29.7308 7.89913 29.7917 7.84408L31.0597 6.69803C31.1206 6.64299 31.1255 6.54939 31.0708 6.48816C31.0434 6.45754 31.0064 6.44098 30.9687 6.43896ZM16.2825 7.21221C16.2351 7.21045 16.1879 7.23192 16.1578 7.27353C16.1097 7.34015 16.1243 7.43271 16.1905 7.4811L16.7707 7.90496C16.837 7.95336 16.929 7.93875 16.9772 7.87213C17.0253 7.80551 17.0107 7.71289 16.9445 7.66449L16.3643 7.24063C16.3395 7.22248 16.3109 7.21324 16.2825 7.21221ZM31.5701 7.21761C31.5416 7.21867 31.5132 7.22782 31.4883 7.24597L30.9078 7.66945C30.8416 7.7178 30.8269 7.81043 30.875 7.87708C30.9231 7.94372 31.0151 7.9584 31.0814 7.91006L31.6619 7.48658C31.7282 7.43823 31.7428 7.34566 31.6947 7.27901C31.6647 7.23736 31.6175 7.21598 31.5701 7.21761ZM15.72 8.04237C15.6727 8.04555 15.628 8.07189 15.6024 8.11646C15.5614 8.18776 15.5855 8.2783 15.6565 8.31947L17.1329 9.17662C17.2039 9.21779 17.2939 9.19353 17.3348 9.12223C17.3758 9.05092 17.3517 8.96038 17.2807 8.91921L15.8043 8.06206C15.7777 8.04663 15.7484 8.0404 15.72 8.04237ZM32.1286 8.04237C32.1002 8.04026 32.0709 8.04661 32.0443 8.06208L30.5678 8.91923C30.4969 8.9604 30.4728 9.05094 30.5137 9.12224C30.5547 9.19355 30.6447 9.2178 30.7156 9.17663L32.1922 8.31949C32.2631 8.27832 32.2872 8.18778 32.2463 8.11647C32.2207 8.07191 32.1759 8.0457 32.1286 8.04237ZM15.2947 8.92723C15.2371 8.92582 15.1819 8.95897 15.1568 9.01536C15.1235 9.09056 15.1568 9.1781 15.2316 9.21164L15.8866 9.50542C15.9614 9.53896 16.0485 9.50544 16.0818 9.43025C16.1152 9.35505 16.0818 9.2675 16.007 9.23396L15.352 8.94019C15.3334 8.93179 15.3139 8.92762 15.2947 8.92723ZM32.5568 8.93334C32.5375 8.93369 32.518 8.93793 32.4993 8.9463L31.8442 9.23956C31.7694 9.27307 31.7359 9.36055 31.7692 9.43578C31.8026 9.511 31.8896 9.54463 31.9644 9.51115L32.6196 9.21781C32.6944 9.18434 32.7278 9.09682 32.6945 9.0216C32.6695 8.96518 32.6144 8.93219 32.5568 8.93334ZM14.9156 9.85207C14.8582 9.85691 14.8068 9.89547 14.7877 9.95419C14.7624 10.0325 14.8046 10.116 14.8825 10.1415L16.5035 10.6727C16.5814 10.6981 16.6645 10.6557 16.6898 10.5774C16.7152 10.4991 16.673 10.4155 16.5951 10.39L14.9741 9.85893C14.9546 9.85254 14.9348 9.85044 14.9156 9.85207ZM32.9351 9.85842C32.916 9.85666 32.8962 9.85878 32.8767 9.86527L31.2553 10.3952C31.1774 10.4207 31.1352 10.5042 31.1605 10.5825C31.1858 10.6608 31.2689 10.7034 31.3467 10.6779L32.9681 10.148C33.046 10.1225 33.0883 10.039 33.063 9.96066C33.044 9.90193 32.9925 9.86332 32.9351 9.85842ZM14.6795 10.8229C14.6106 10.8222 14.5489 10.8702 14.534 10.9407C14.5169 11.0213 14.5677 11.0999 14.6478 11.117L15.3494 11.2669C15.4295 11.284 15.5076 11.2329 15.5247 11.1524C15.5417 11.0719 15.4909 10.9932 15.4108 10.9761L14.7093 10.8262C14.6993 10.8241 14.6893 10.8229 14.6795 10.8229ZM33.1694 10.8243C33.1596 10.8244 33.1497 10.8257 33.1396 10.8275L32.4381 10.9773C32.358 10.9944 32.3072 11.073 32.3242 11.1535C32.3413 11.2341 32.4194 11.2852 32.4995 11.2681L33.201 11.1182C33.2811 11.1011 33.332 11.0225 33.3149 10.942C33.3001 10.8715 33.2383 10.8237 33.1694 10.8243ZM14.5007 11.7994C14.4322 11.806 14.3758 11.8601 14.3682 11.9317C14.3596 12.0136 14.4182 12.0865 14.4996 12.0952L16.1951 12.2754C16.2766 12.2841 16.3491 12.2251 16.3577 12.1432C16.3663 12.0613 16.3076 11.9884 16.2262 11.9798L14.5307 11.7995C14.5205 11.7985 14.5105 11.7985 14.5007 11.7994ZM33.3494 11.8122C33.3396 11.8112 33.3296 11.8112 33.3194 11.8124L31.6237 11.9903C31.5423 11.9988 31.4836 12.0716 31.492 12.1535C31.5005 12.2354 31.573 12.2945 31.6544 12.2859L33.3501 12.108C33.4315 12.0994 33.4902 12.0266 33.4817 11.9447C33.4743 11.8731 33.418 11.8189 33.3494 11.8122ZM14.472 12.799C14.3901 12.799 14.3242 12.8653 14.3242 12.9476C14.3242 13.03 14.3901 13.0963 14.472 13.0963H15.1892C15.2711 13.0963 15.3371 13.03 15.3371 12.9476C15.3371 12.8653 15.2711 12.799 15.1892 12.799H14.472ZM32.6594 12.799C32.5775 12.799 32.5116 12.8653 32.5116 12.9476C32.5116 13.03 32.5775 13.0963 32.6594 13.0963H33.3766C33.4584 13.0963 33.5244 13.03 33.5244 12.9476C33.5244 12.8653 33.4584 12.799 33.3766 12.799H32.6594ZM16.2242 13.6092C16.2144 13.6081 16.2044 13.6082 16.1942 13.6093L14.4985 13.7873C14.417 13.7958 14.3583 13.8686 14.3668 13.9505C14.3753 14.0324 14.4477 14.0915 14.5292 14.0829L16.2249 13.905C16.3064 13.8964 16.3651 13.8236 16.3566 13.7417C16.3491 13.6701 16.2928 13.6159 16.2242 13.6092ZM31.6235 13.6197C31.5549 13.6263 31.4985 13.6804 31.491 13.7521C31.4824 13.8339 31.541 13.9068 31.6224 13.9155L33.3179 14.0957C33.3993 14.1044 33.4718 14.0454 33.4804 13.9635C33.489 13.8817 33.4304 13.8088 33.3489 13.8001L31.6535 13.6199C31.6433 13.6188 31.6333 13.6188 31.6235 13.6197ZM15.379 14.6238C15.3691 14.6239 15.3591 14.6248 15.3491 14.6269L14.6476 14.7768C14.5675 14.7939 14.5167 14.8725 14.5337 14.9531C14.5507 15.0336 14.6289 15.0847 14.709 15.0675L15.4105 14.9178C15.4906 14.9006 15.5414 14.822 15.5244 14.7415C15.5095 14.671 15.4478 14.6232 15.379 14.6238ZM32.4694 14.6252C32.4006 14.6245 32.3389 14.6725 32.324 14.7429C32.3069 14.8235 32.3577 14.9021 32.4378 14.9192L33.1393 15.0691C33.2194 15.0862 33.2976 15.0352 33.3146 14.9547C33.3316 14.8741 33.2808 14.7955 33.2007 14.7784L32.4993 14.6285C32.4893 14.6263 32.4793 14.6252 32.4694 14.6252ZM16.5603 15.2106C16.5411 15.2088 16.5214 15.2109 16.5019 15.2174L14.8805 15.7474C14.8026 15.7728 14.7603 15.8564 14.7856 15.9347C14.8109 16.013 14.894 16.0555 14.9719 16.03L16.5933 15.5001C16.6711 15.4746 16.7135 15.3911 16.6882 15.3128C16.6692 15.2541 16.6177 15.2155 16.5603 15.2106ZM31.2867 15.2158C31.2293 15.2207 31.1778 15.2592 31.1588 15.3179C31.1335 15.3962 31.1757 15.4798 31.2535 15.5053L32.8746 16.0364C32.9524 16.0619 33.0355 16.0194 33.0609 15.9412C33.0863 15.8629 33.0441 15.7793 32.9662 15.7538L31.3451 15.2227C31.3257 15.2163 31.3058 15.2142 31.2867 15.2158ZM15.9415 16.3713C15.9223 16.3717 15.9029 16.3758 15.8842 16.3842L15.229 16.6775C15.1542 16.711 15.1208 16.7985 15.1541 16.8737C15.1874 16.9489 15.2744 16.9825 15.3492 16.949L16.0045 16.6558C16.0793 16.6223 16.1126 16.5348 16.0793 16.4596C16.0544 16.4031 15.9991 16.3701 15.9415 16.3713ZM31.9047 16.3769C31.8471 16.3755 31.7918 16.4087 31.7668 16.4651C31.7335 16.5403 31.7668 16.6278 31.8416 16.6614L32.4965 16.9551C32.5713 16.9887 32.6584 16.9552 32.6917 16.88C32.7251 16.8048 32.6918 16.7172 32.617 16.6837L31.962 16.3899C31.9433 16.3815 31.9239 16.3773 31.9047 16.3769ZM17.2172 16.699C17.1888 16.6969 17.1595 16.7032 17.1329 16.7187L15.6565 17.5759C15.5855 17.617 15.5614 17.7076 15.6024 17.7789C15.6433 17.8502 15.7334 17.8744 15.8043 17.8333L17.2807 16.9762C17.3517 16.935 17.3758 16.8444 17.3348 16.7731C17.3092 16.7285 17.2645 16.7023 17.2172 16.699ZM30.6314 16.699C30.5841 16.7022 30.5393 16.7285 30.5137 16.7731C30.4728 16.8444 30.4969 16.935 30.5678 16.9762L32.0443 17.8333C32.1152 17.8744 32.2053 17.8502 32.2463 17.7789C32.2872 17.7076 32.2631 17.617 32.1922 17.5759L30.7156 16.7187C30.6891 16.7033 30.6598 16.697 30.6314 16.699ZM16.8489 17.9569C16.8205 17.9579 16.792 17.9671 16.7671 17.9853L16.1867 18.4088C16.1204 18.4571 16.1058 18.5497 16.1538 18.6163C16.2019 18.683 16.294 18.6977 16.3603 18.6493L16.9408 18.2259C17.0071 18.1775 17.0217 18.0849 16.9736 18.0183C16.9436 17.9767 16.8963 17.9552 16.8489 17.9569ZM30.9961 17.9619C30.9488 17.9601 30.9015 17.9816 30.8714 18.0232C30.8233 18.0898 30.8379 18.1824 30.9042 18.2308L31.4843 18.6547C31.5506 18.7031 31.6426 18.6884 31.6908 18.6218C31.7389 18.5552 31.7243 18.4626 31.6581 18.4142L31.0779 17.9904C31.0531 17.9722 31.0246 17.9629 30.9961 17.9619ZM18.1636 18.0132C18.1258 18.0111 18.0874 18.0237 18.0569 18.0512L16.789 19.1973C16.7281 19.2523 16.7231 19.3459 16.7779 19.4072C16.8326 19.4684 16.9257 19.4734 16.9866 19.4183L18.2545 18.2723C18.3154 18.2172 18.3204 18.1236 18.2656 18.0624C18.2383 18.0318 18.2013 18.0152 18.1636 18.0132ZM29.6815 18.0173C29.6438 18.0194 29.6068 18.0358 29.5794 18.0664C29.5246 18.1276 29.5295 18.2212 29.5903 18.2763L30.8574 19.4232C30.9183 19.4783 31.0114 19.4734 31.0662 19.4122C31.121 19.351 31.1161 19.2574 31.0553 19.2024L29.7881 18.0554C29.7577 18.0279 29.7192 18.0153 29.6815 18.0173ZM19.3664 19.1061C19.3191 19.1043 19.2718 19.1256 19.2417 19.1673L18.2387 20.5535C18.1905 20.6201 18.205 20.7127 18.2712 20.7612C18.3375 20.8096 18.4296 20.795 18.4777 20.7284L19.4807 19.3422C19.5288 19.2756 19.5144 19.183 19.4482 19.1345C19.4233 19.1164 19.3949 19.107 19.3664 19.1061ZM28.4739 19.1123C28.4455 19.1133 28.417 19.1225 28.3921 19.1406C28.3258 19.189 28.3112 19.2815 28.3593 19.3482L29.3604 20.7358C29.4084 20.8025 29.5005 20.8172 29.5668 20.7689C29.6331 20.7205 29.6477 20.6279 29.5997 20.5613L28.5986 19.1737C28.5685 19.132 28.5213 19.1106 28.4739 19.1123ZM18.0717 19.3264C18.034 19.3285 17.997 19.3449 17.9696 19.3755L17.4897 19.9114C17.4349 19.9726 17.4398 20.0662 17.5006 20.1213C17.5615 20.1764 17.6546 20.1715 17.7094 20.1103L18.1893 19.5744C18.2441 19.5132 18.2392 19.4196 18.1783 19.3645C18.1479 19.3369 18.1094 19.3244 18.0717 19.3264ZM29.776 19.3271C29.7382 19.325 29.6998 19.3377 29.6694 19.3652C29.6085 19.4203 29.6036 19.5139 29.6584 19.5751L30.1382 20.1111C30.193 20.1723 30.286 20.1772 30.3469 20.1221C30.4078 20.067 30.4127 19.9733 30.3579 19.9121L29.8781 19.3762C29.8507 19.3456 29.8137 19.3291 29.776 19.3271ZM20.767 19.9216C20.7094 19.9202 20.6542 19.9533 20.6292 20.0097L19.9346 21.5753C19.9012 21.6505 19.9346 21.738 20.0093 21.7715C20.0841 21.8051 20.1712 21.7716 20.2045 21.6964L20.8992 20.1308C20.9325 20.0556 20.8992 19.9681 20.8244 19.9345C20.8057 19.9261 20.7862 19.922 20.767 19.9216ZM27.0722 19.9259C27.053 19.9262 27.0335 19.9304 27.0148 19.9388C26.94 19.9722 26.9065 20.0597 26.9398 20.1349L27.6322 21.7014C27.6655 21.7766 27.7525 21.8103 27.8274 21.7769C27.9022 21.7434 27.9356 21.656 27.9024 21.5807L27.2099 20.0142C27.185 19.9578 27.1298 19.9248 27.0722 19.9259ZM19.5464 20.4056C19.4991 20.4088 19.4544 20.4351 19.4288 20.4797L19.0702 21.1042C19.0292 21.1755 19.0534 21.266 19.1243 21.3072C19.1952 21.3484 19.2852 21.3241 19.3262 21.2528L19.6848 20.6283C19.7257 20.557 19.7016 20.4665 19.6307 20.4253C19.6041 20.4099 19.5748 20.4036 19.5464 20.4056ZM28.3022 20.4056C28.2738 20.4035 28.2446 20.4099 28.218 20.4253C28.1471 20.4665 28.1229 20.557 28.1639 20.6283L28.5225 21.2528C28.5634 21.3241 28.6534 21.3484 28.7244 21.3072C28.7953 21.2661 28.8194 21.1755 28.7785 21.1042L28.4199 20.4797C28.3943 20.4351 28.3495 20.4089 28.3022 20.4056ZM22.3134 20.428C22.2445 20.4273 22.1828 20.4753 22.168 20.5458L21.8136 22.2227C21.7966 22.3032 21.8474 22.3818 21.9275 22.3989C22.0076 22.4161 22.0858 22.365 22.1028 22.2844L22.4571 20.6075C22.4742 20.527 22.4233 20.4484 22.3433 20.4313C22.3332 20.4291 22.3232 20.428 22.3134 20.428ZM25.5299 20.4291C25.5201 20.4291 25.5102 20.4301 25.5002 20.4322C25.4201 20.4493 25.3692 20.5278 25.3862 20.6084L25.7393 22.2855C25.7562 22.3661 25.8344 22.4172 25.9145 22.4002C25.9946 22.3831 26.0455 22.3045 26.0285 22.224L25.6753 20.5469C25.6605 20.4764 25.5988 20.4285 25.5299 20.4291ZM23.9243 20.5982C23.8424 20.5982 23.7765 20.6645 23.7765 20.7468V22.4611C23.7765 22.5435 23.8424 22.6097 23.9243 22.6097C24.0062 22.6097 24.0721 22.5435 24.0721 22.4611V20.7468C24.0721 20.6645 24.0062 20.5982 23.9243 20.5982ZM21.2111 21.1521C21.1537 21.1571 21.1021 21.1957 21.0832 21.2544L20.8615 21.9402C20.8362 22.0185 20.8785 22.1021 20.9563 22.1275C21.0342 22.153 21.1173 22.1104 21.1426 22.0321L21.3643 21.3463C21.3896 21.268 21.3473 21.1845 21.2694 21.159C21.25 21.1527 21.2302 21.1505 21.2111 21.1521ZM26.6364 21.1525C26.6172 21.1507 26.5975 21.1528 26.578 21.1593C26.5001 21.1848 26.4578 21.2683 26.4831 21.3466L26.7047 22.0324C26.73 22.1107 26.8131 22.1533 26.891 22.1278C26.9688 22.1024 27.0112 22.0189 26.9859 21.9406L26.7642 21.2548C26.7452 21.196 26.6938 21.1574 26.6364 21.1525ZM22.9965 21.5345C22.9279 21.5411 22.8715 21.5952 22.864 21.6669L22.789 22.3841C22.7805 22.4659 22.8391 22.5387 22.9206 22.5474C23.002 22.556 23.0745 22.497 23.0831 22.4151L23.158 21.698C23.1666 21.6161 23.1079 21.5432 23.0265 21.5346C23.0163 21.5335 23.0063 21.5335 22.9965 21.5345ZM24.8462 21.5352C24.8364 21.5341 24.8263 21.5341 24.8161 21.5353C24.7346 21.5438 24.6759 21.6167 24.6844 21.6985L24.7589 22.4158C24.7674 22.4977 24.8398 22.5567 24.9213 22.5481C25.0027 22.5396 25.0615 22.4668 25.053 22.3849L24.9785 21.6677C24.9711 21.596 24.9147 21.5419 24.8462 21.5352Z" fill="#F4F2F3"/>
<g opacity="0.409" filter="url(#filter0_f_2079_397)">
<path d="M30.8562 7.00195L22.7693 11.7263L17.6562 19.82L25.1363 14.2491L30.8562 7.00195Z" fill="black"/>
</g>
<path d="M25.0914 14.1686L22.7734 11.7278L30.9961 6.16602L25.0914 14.1686Z" fill="#FF5150"/>
<path d="M25.0899 14.1674L22.7719 11.7266L16.8672 19.7292L25.0899 14.1674Z" fill="#F1F1F1"/>
<path opacity="0.243" d="M16.8672 19.7305L25.0899 14.1686L30.9946 6.16602L16.8672 19.7305Z" fill="black"/>
<circle cx="12.9297" cy="12.8867" r="11.5" fill="white" stroke="white"/>
<path d="M12.9297 18.3848C15.9673 18.3848 18.4297 15.9223 18.4297 12.8848C18.4297 9.8472 15.9673 7.38477 12.9297 7.38477C9.89212 7.38477 7.42969 9.8472 7.42969 12.8848C7.42969 15.9223 9.89212 18.3848 12.9297 18.3848Z" fill="white"/>
<path d="M12.9317 7.38674H22.4564C21.4912 5.71446 20.1028 4.32576 18.4307 3.36028C16.7586 2.39481 14.8617 1.88658 12.9309 1.88672C11.0001 1.88685 9.10335 2.39534 7.43139 3.36105C5.75942 4.32676 4.37118 5.71565 3.40625 7.38807L8.16861 15.6367L8.17287 15.6356C7.68841 14.8002 7.43276 13.8518 7.43167 12.8861C7.43058 11.9204 7.68411 10.9715 8.16669 10.135C8.64927 9.29845 9.34384 8.60395 10.1804 8.12146C11.017 7.63897 11.9659 7.38555 12.9317 7.38674Z" fill="url(#paint8_linear_2079_397)"/>
<path d="M12.9323 17.2396C15.337 17.2396 17.2865 15.2902 17.2865 12.8854C17.2865 10.4807 15.337 8.53125 12.9323 8.53125C10.5276 8.53125 8.57812 10.4807 8.57812 12.8854C8.57812 15.2902 10.5276 17.2396 12.9323 17.2396Z" fill="#1A73E8"/>
<path d="M17.694 15.6366L12.9317 23.8853C14.8625 23.8856 16.7593 23.3775 18.4315 22.4121C20.1037 21.4468 21.4922 20.0582 22.4575 18.386C23.4228 16.7138 23.9308 14.8169 23.9304 12.8861C23.9301 10.9553 23.4214 9.05858 22.4555 7.38672H12.9308L12.9297 7.39098C13.8954 7.38912 14.8446 7.64189 15.6815 8.1238C16.5183 8.60572 17.2134 9.29975 17.6965 10.1359C18.1797 10.9721 18.4338 11.9209 18.4334 12.8866C18.433 13.8523 18.1779 14.8009 17.694 15.6366Z" fill="url(#paint9_linear_2079_397)"/>
<path d="M8.16619 15.6393L3.40383 7.39062C2.43818 9.06262 1.92976 10.9594 1.92969 12.8902C1.92962 14.821 2.4379 16.7178 3.40342 18.3899C4.36895 20.062 5.75769 21.4504 7.43 22.4155C9.10231 23.3806 10.9992 23.8884 12.9301 23.8879L17.6924 15.6392L17.6893 15.6361C17.2081 16.4734 16.5146 17.1689 15.6788 17.6527C14.843 18.1365 13.8944 18.3915 12.9287 18.3918C11.963 18.3921 11.0142 18.1378 10.1781 17.6546C9.34198 17.1714 8.64802 16.4762 8.16619 15.6393Z" fill="url(#paint10_linear_2079_397)"/>
<defs>
<filter id="filter0_f_2079_397" x="15.1114" y="4.45712" width="18.2889" height="17.908" filterUnits="userSpaceOnUse" color-interpolation-filters="sRGB">
<feFlood flood-opacity="0" result="BackgroundImageFix"/>
<feBlend mode="normal" in="SourceGraphic" in2="BackgroundImageFix" result="shape"/>
<feGaussianBlur stdDeviation="1.27242" result="effect1_foregroundBlur_2079_397"/>
</filter>
<linearGradient id="paint0_linear_2079_397" x1="28.9766" y1="17.0977" x2="44.3078" y2="17.0977" gradientUnits="userSpaceOnUse">
<stop stop-color="#0C59A4"/>
<stop offset="1" stop-color="#114A8B"/>
</linearGradient>
<radialGradient id="paint1_radial_2079_397" cx="0" cy="0" r="1" gradientUnits="userSpaceOnUse" gradientTransform="translate(37.4414 17.2132) scale(8.19844 7.78852)">
<stop offset="0.7" stop-opacity="0"/>
<stop offset="0.9" stop-opacity="0.5"/>
<stop offset="1"/>
</radialGradient>
<linearGradient id="paint2_linear_2079_397" x1="37.052" y1="10.4453" x2="27.4872" y2="20.8695" gradientUnits="userSpaceOnUse">
<stop stop-color="#1B9DE2"/>
<stop offset="0.2" stop-color="#1595DF"/>
<stop offset="0.7" stop-color="#0680D7"/>
<stop offset="1" stop-color="#0078D4"/>
</linearGradient>
<radialGradient id="paint3_radial_2079_397" cx="0" cy="0" r="1" gradientTransform="matrix(1.84594 -12.1832 -9.845 -1.47675 29.9927 18.9821)" gradientUnits="userSpaceOnUse">
<stop offset="0.8" stop-opacity="0"/>
<stop offset="0.9" stop-opacity="0.5"/>
<stop offset="1"/>
</radialGradient>
<radialGradient id="paint4_radial_2079_397" cx="0" cy="0" r="1" gradientTransform="matrix(-0.69575 17.3938 37.0487 1.3915 26.1546 5.95294)" gradientUnits="userSpaceOnUse">
<stop stop-color="#35C1F1"/>
<stop offset="0.1" stop-color="#34C1ED"/>
<stop offset="0.2" stop-color="#2FC2DF"/>
<stop offset="0.3" stop-color="#2BC3D2"/>
<stop offset="0.7" stop-color="#36C752"/>
</radialGradient>
<radialGradient id="paint5_radial_2079_397" cx="0" cy="0" r="1" gradientTransform="matrix(2.34128 8.02725 6.52214 -1.9232 44.5598 8.52969)" gradientUnits="userSpaceOnUse">
<stop stop-color="#66EB6E"/>
<stop offset="1" stop-color="#66EB6E" stop-opacity="0"/>
</radialGradient>
<linearGradient id="paint6_linear_2079_397" x1="23.9293" y1="24.0075" x2="23.9293" y2="1.88666" gradientUnits="userSpaceOnUse">
<stop stop-color="#BDBDBD"/>
<stop offset="1" stop-color="white"/>
</linearGradient>
<radialGradient id="paint7_radial_2079_397" cx="0" cy="0" r="1" gradientUnits="userSpaceOnUse" gradientTransform="translate(23.9728 11.4613) scale(11 11.0605)">
<stop stop-color="#06C2E7"/>
<stop offset="0.25" stop-color="#0DB8EC"/>
<stop offset="0.5" stop-color="#12AEF1"/>
<stop offset="0.75" stop-color="#1F86F9"/>
<stop offset="1" stop-color="#107DDD"/>
</radialGradient>
<linearGradient id="paint8_linear_2079_397" x1="3.40625" y1="8.76174" x2="22.4564" y2="8.76174" gradientUnits="userSpaceOnUse">
<stop stop-color="#D93025"/>
<stop offset="1" stop-color="#EA4335"/>
</linearGradient>
<linearGradient id="paint9_linear_2079_397" x1="11.4289" y1="23.7382" x2="20.954" y2="7.24033" gradientUnits="userSpaceOnUse">
<stop stop-color="#FCC934"/>
<stop offset="1" stop-color="#FBBC04"/>
</linearGradient>
<linearGradient id="paint10_linear_2079_397" x1="14.1197" y1="23.2011" x2="4.59463" y2="6.70313" gradientUnits="userSpaceOnUse">
<stop stop-color="#1E8E3E"/>
<stop offset="1" stop-color="#34A853"/>
</linearGradient>
</defs>
</svg>
